<svg width="973" height="246" fill="none" xmlns="http://www.w3.org/2000/svg"><path d="M3.243 3.243C.06 6.426 0 8.649 0 122.542c0 76.899.566 117.115 1.679 119.193 1.654 3.09 8.758 3.136 482.04 3.095l480.362-.041-11.905-4.055c-21.788-7.422-38.655-17.883-51.462-31.919-11.093-12.157-16.468-22.884-20.28-40.477-6.317-29.149-14.063-37.978-45.33-51.668-30.914-13.536-37.917-21.716-39.933-46.64-1.481-18.317-5.68-28.128-16.801-39.249-11.694-11.693-30.278-21.167-52.477-26.751L709.874 0H358.18C8.649 0 6.467.02 3.243 3.243" fill="#F6F7F7" fill-rule="evenodd"/></svg>