<svg xmlns="http://www.w3.org/2000/svg" width="563" height="246" fill="none"><path d="M6.099.887c-1.032.423-2.721 1.707-3.753 2.854C.493 5.8.466 7.324.224 121.523c-.158 74.429.084 116.564.68 118.131.509 1.339 2.309 3.278 3.999 4.309 3.053 1.861 4.869 1.873 279.881 1.866l276.808-.007-12.272-6.011c-25.097-12.292-42.833-30.024-50.556-50.541-3.007-7.989-3.783-11.538-5.591-25.575-2.256-17.515-6.679-28.304-14.952-36.472-2.658-2.624-10.406-8.474-17.219-13.001-20.632-13.71-23.979-19.625-25.608-45.254-1.016-15.999-3.105-24.843-8.124-34.394C419.364 19.529 403 7.006 384.575 1.9 377.792.021 375.697.001 192.846.059 91.168.092 7.131.465 6.099.887" fill="#F6F7F7" fill-rule="evenodd"/></svg>